<svg viewBox="0 0 890.84 233.78" xmlns="http://www.w3.org/2000/svg" xmlns:xlink="http://www.w3.org/1999/xlink" id="Layer_1" overflow="hidden"><style>
.MsftOfcThm_Text1_Fill_v2 {
 fill:#367d56; 
}
</style>
<defs></defs><path d="M74.14 186.97 109.04 169.48C121.42 163.27 136.21 163.27 148.59 169.48L183.49 186.97C191.15 190.81 199.55 192.73 207.96 192.73 216.37 192.73 224.77 190.81 232.43 186.97L267.33 169.48C273.44 166.42 280.28 164.8 287.11 164.8 287.11 164.8 287.11 164.8 287.12 164.8 287.13 164.8 287.12 164.8 287.13 164.8 293.96 164.8 300.8 166.42 306.91 169.48L341.81 186.97C357.13 194.65 375.42 194.65 390.74 186.97L425.64 169.48C438.02 163.27 452.81 163.27 465.19 169.48L500.09 186.97C507.75 190.81 516.15 192.73 524.56 192.73 532.97 192.73 541.37 190.81 549.03 186.97L583.93 169.48C590.04 166.42 596.88 164.8 603.71 164.8 603.71 164.8 603.71 164.8 603.72 164.8 603.73 164.8 603.72 164.8 603.73 164.8 610.56 164.8 617.4 166.42 623.51 169.48L658.41 186.97C673.73 194.65 692.02 194.65 707.34 186.97L742.24 169.48C754.62 163.27 769.41 163.27 781.79 169.48L816.69 186.97C824.35 190.81 832.75 192.73 841.16 192.73 849.57 192.73 857.97 190.81 865.63 186.97L890.83 174.34 890.83 162.63 860.94 177.61C848.56 183.82 833.77 183.82 821.39 177.61L786.49 160.12C771.17 152.44 752.88 152.44 737.56 160.12L702.66 177.61C690.28 183.82 675.49 183.82 663.11 177.61L628.21 160.11C620.65 156.32 612.19 154.32 603.74 154.32 603.74 154.32 603.74 154.32 603.73 154.32 603.72 154.32 603.73 154.32 603.72 154.32 595.27 154.32 586.81 156.32 579.25 160.11L544.35 177.6C531.97 183.81 517.18 183.81 504.8 177.6L469.9 160.11C454.58 152.43 436.29 152.43 420.97 160.11L386.07 177.6C373.69 183.81 358.9 183.81 346.52 177.6L311.62 160.1C304.06 156.31 295.6 154.31 287.15 154.31 287.15 154.31 287.15 154.31 287.14 154.31 287.13 154.31 287.14 154.31 287.13 154.31 278.68 154.31 270.22 156.31 262.66 160.1L227.76 177.59C215.38 183.8 200.59 183.8 188.21 177.59L153.31 160.1C137.99 152.42 119.7 152.42 104.38 160.1L69.48 177.59C57.1 183.8 42.31 183.8 29.93 177.59L0 162.63 0 174.34 25.2 186.97C40.52 194.65 58.81 194.65 74.13 186.97Z" class="MsftOfcThm_Text1_Fill_v2" stroke="none" stroke-width="0" stroke-linecap="butt" stroke-linejoin="miter" stroke-miterlimit="4" fill="#367d56" fill-opacity="1"/><path d="M74.14 186.97 109.04 169.48C121.42 163.27 136.21 163.27 148.59 169.48L183.49 186.97C191.15 190.81 199.55 192.73 207.96 192.73 216.37 192.73 224.77 190.81 232.43 186.97L267.33 169.48C273.44 166.42 280.28 164.8 287.11 164.8 287.11 164.8 287.11 164.8 287.12 164.8 287.13 164.8 287.12 164.8 287.13 164.8 293.96 164.8 300.8 166.42 306.91 169.48L341.81 186.97C357.13 194.65 375.42 194.65 390.74 186.97L425.64 169.48C438.02 163.27 452.81 163.27 465.19 169.48L500.09 186.97C507.75 190.81 516.15 192.73 524.56 192.73 532.97 192.73 541.37 190.81 549.03 186.97L583.93 169.48C590.04 166.42 596.88 164.8 603.71 164.8 603.71 164.8 603.71 164.8 603.72 164.8 603.73 164.8 603.72 164.8 603.73 164.8 610.56 164.8 617.4 166.42 623.51 169.48L658.41 186.97C673.73 194.65 692.02 194.65 707.34 186.97L742.24 169.48C754.62 163.27 769.41 163.27 781.79 169.48L816.69 186.97C824.35 190.81 832.75 192.73 841.16 192.73 849.57 192.73 857.97 190.81 865.63 186.97L890.83 174.34 890.83 162.63 860.94 177.61C848.56 183.82 833.77 183.82 821.39 177.61L786.49 160.12C771.17 152.44 752.88 152.44 737.56 160.12L702.66 177.61C690.28 183.82 675.49 183.82 663.11 177.61L628.21 160.11C620.65 156.32 612.19 154.32 603.74 154.32 603.74 154.32 603.74 154.32 603.73 154.32 603.72 154.32 603.73 154.32 603.72 154.32 595.27 154.32 586.81 156.32 579.25 160.11L544.35 177.6C531.97 183.81 517.18 183.81 504.8 177.6L469.9 160.11C454.58 152.43 436.29 152.43 420.97 160.11L386.07 177.6C373.69 183.81 358.9 183.81 346.52 177.6L311.62 160.1C304.06 156.31 295.6 154.31 287.15 154.31 287.15 154.31 287.15 154.31 287.14 154.31 287.13 154.31 287.14 154.31 287.13 154.31 278.68 154.31 270.22 156.31 262.66 160.1L227.76 177.59C215.38 183.8 200.59 183.8 188.21 177.59L153.31 160.1C137.99 152.42 119.7 152.42 104.38 160.1L69.48 177.59C57.1 183.8 42.31 183.8 29.93 177.59L0 162.63 0 174.34 25.2 186.97C40.52 194.65 58.81 194.65 74.13 186.97Z" class="MsftOfcThm_Text1_Fill_v2" stroke="none" stroke-width="0" stroke-linecap="butt" stroke-linejoin="miter" stroke-miterlimit="4" fill="#367d56" fill-opacity="1"/><path d="M100.31 131.2 107.87 127.42C120.99 120.86 136.65 120.86 149.77 127.42L184.67 144.89C191.96 148.54 199.96 150.37 207.96 150.37 215.96 150.37 223.96 148.54 231.25 144.89L266.15 127.42C272.62 124.18 279.86 122.47 287.1 122.47 287.11 122.47 287.12 122.47 287.13 122.47 287.14 122.47 287.15 122.47 287.16 122.47 294.39 122.47 301.64 124.18 308.11 127.42L343.01 144.89C350.3 148.54 358.3 150.37 366.3 150.37 374.3 150.37 382.3 148.54 389.59 144.89 390.88 144.24 391.41 142.67 390.76 141.38 390.11 140.09 388.54 139.56 387.25 140.21 374.13 146.78 358.47 146.78 345.35 140.21L310.45 122.74C303.25 119.14 295.2 117.24 287.16 117.24 287.15 117.24 287.14 117.24 287.13 117.24 287.12 117.24 287.11 117.24 287.1 117.24 279.06 117.24 271 119.14 263.81 122.74L228.91 140.21C215.79 146.78 200.13 146.78 187.01 140.21L152.11 122.74C137.53 115.44 120.11 115.44 105.53 122.74L97.97 126.52C96.68 127.17 96.15 128.74 96.8 130.03 97.45 131.32 99.02 131.85 100.31 131.2Z" class="MsftOfcThm_Text1_Fill_v2" stroke="none" stroke-width="0" stroke-linecap="butt" stroke-linejoin="miter" stroke-miterlimit="4" fill="#367d56" fill-opacity="1"/><path d="M100.31 131.2 107.87 127.42C120.99 120.86 136.65 120.86 149.77 127.42L184.67 144.89C191.96 148.54 199.96 150.37 207.96 150.37 215.96 150.37 223.96 148.54 231.25 144.89L266.15 127.42C272.62 124.18 279.86 122.47 287.1 122.47 287.11 122.47 287.12 122.47 287.13 122.47 287.14 122.47 287.15 122.47 287.16 122.47 294.39 122.47 301.64 124.18 308.11 127.42L343.01 144.89C350.3 148.54 358.3 150.37 366.3 150.37 374.3 150.37 382.3 148.54 389.59 144.89 390.88 144.24 391.41 142.67 390.76 141.38 390.11 140.09 388.54 139.56 387.25 140.21 374.13 146.78 358.47 146.78 345.35 140.21L310.45 122.74C303.25 119.14 295.2 117.24 287.16 117.24 287.15 117.24 287.14 117.24 287.13 117.24 287.12 117.24 287.11 117.24 287.1 117.24 279.06 117.24 271 119.14 263.81 122.74L228.91 140.21C215.79 146.78 200.13 146.78 187.01 140.21L152.11 122.74C137.53 115.44 120.11 115.44 105.53 122.74L97.97 126.52C96.68 127.17 96.15 128.74 96.8 130.03 97.45 131.32 99.02 131.85 100.31 131.2Z" class="MsftOfcThm_Text1_Fill_v2" stroke="none" stroke-width="0" stroke-linecap="butt" stroke-linejoin="miter" stroke-miterlimit="4" fill="#367d56" fill-opacity="1"/><path d="M49.68 150.36C57.68 150.36 65.68 148.53 72.97 144.88 74.26 144.23 74.79 142.66 74.14 141.37 73.49 140.08 71.92 139.55 70.63 140.2 57.51 146.77 41.85 146.77 28.73 140.2L0 125.82 0 131.67 26.39 144.88C33.68 148.53 41.68 150.36 49.68 150.36Z" class="MsftOfcThm_Text1_Fill_v2" stroke="none" stroke-width="0" stroke-linecap="butt" stroke-linejoin="miter" stroke-miterlimit="4" fill="#367d56" fill-opacity="1"/><path d="M49.68 150.36C57.68 150.36 65.68 148.53 72.97 144.88 74.26 144.23 74.79 142.66 74.14 141.37 73.49 140.08 71.92 139.55 70.63 140.2 57.51 146.77 41.85 146.77 28.73 140.2L0 125.82 0 131.67 26.39 144.88C33.68 148.53 41.68 150.36 49.68 150.36Z" class="MsftOfcThm_Text1_Fill_v2" stroke="none" stroke-width="0" stroke-linecap="butt" stroke-linejoin="miter" stroke-miterlimit="4" fill="#367d56" fill-opacity="1"/><path d="M49.68 109.96C57.58 109.96 65.48 108.16 72.68 104.56L107.58 87.1C120.88 80.45 136.76 80.45 150.06 87.1L184.96 104.56C185.93 105.05 187.11 104.65 187.59 103.68 188.08 102.71 187.68 101.53 186.71 101.05L151.81 83.59C137.41 76.38 120.22 76.38 105.82 83.59L70.92 101.05C57.62 107.7 41.74 107.7 28.44 101.05L0 86.82 0 91.21 26.68 104.56C33.88 108.16 41.78 109.96 49.68 109.96Z" class="MsftOfcThm_Text1_Fill_v2" stroke="none" stroke-width="0" stroke-linecap="butt" stroke-linejoin="miter" stroke-miterlimit="4" fill="#367d56" fill-opacity="1"/><path d="M49.68 109.96C57.58 109.96 65.48 108.16 72.68 104.56L107.58 87.1C120.88 80.45 136.76 80.45 150.06 87.1L184.96 104.56C185.93 105.05 187.11 104.65 187.59 103.68 188.08 102.71 187.68 101.53 186.71 101.05L151.81 83.59C137.41 76.38 120.22 76.38 105.82 83.59L70.92 101.05C57.62 107.7 41.74 107.7 28.44 101.05L0 86.82 0 91.21 26.68 104.56C33.88 108.16 41.78 109.96 49.68 109.96Z" class="MsftOfcThm_Text1_Fill_v2" stroke="none" stroke-width="0" stroke-linecap="butt" stroke-linejoin="miter" stroke-miterlimit="4" fill="#367d56" fill-opacity="1"/><path d="M230.65 64.23 265.55 46.77C272.2 43.44 279.65 41.69 287.08 41.69 287.09 41.69 287.11 41.69 287.12 41.69 287.13 41.69 287.15 41.69 287.16 41.69 294.6 41.69 302.04 43.45 308.69 46.77L343.59 64.23C348.89 66.88 354.56 68.57 360.45 69.25 360.5 69.25 360.55 69.25 360.6 69.25 361.26 69.25 361.82 68.76 361.9 68.09 361.98 67.37 361.47 66.72 360.75 66.64 355.17 65.99 349.79 64.39 344.76 61.88L309.86 44.42C302.85 40.91 295 39.06 287.16 39.06 287.15 39.06 287.13 39.06 287.12 39.06 287.11 39.06 287.09 39.06 287.08 39.06 279.24 39.06 271.39 40.91 264.38 44.42L229.48 61.88C216 68.62 199.9 68.62 186.42 61.88L151.52 44.42C137.3 37.31 120.33 37.31 106.11 44.42L71.21 61.88C70.56 62.2 70.3 62.99 70.63 63.63 70.95 64.28 71.74 64.54 72.39 64.21L107.29 46.75C120.77 40.01 136.87 40.01 150.35 46.75L185.25 64.21C192.36 67.77 200.16 69.54 207.95 69.54 215.74 69.54 223.55 67.76 230.65 64.21Z" class="MsftOfcThm_Text1_Fill_v2" stroke="none" stroke-width="0" stroke-linecap="butt" stroke-linejoin="miter" stroke-miterlimit="4" fill="#367d56" fill-opacity="1"/><path d="M230.65 64.23 265.55 46.77C272.2 43.44 279.65 41.69 287.08 41.69 287.09 41.69 287.11 41.69 287.12 41.69 287.13 41.69 287.15 41.69 287.16 41.69 294.6 41.69 302.04 43.45 308.69 46.77L343.59 64.23C348.89 66.88 354.56 68.57 360.45 69.25 360.5 69.25 360.55 69.25 360.6 69.25 361.26 69.25 361.82 68.76 361.9 68.09 361.98 67.37 361.47 66.72 360.75 66.64 355.17 65.99 349.79 64.39 344.76 61.88L309.86 44.42C302.85 40.91 295 39.06 287.16 39.06 287.15 39.06 287.13 39.06 287.12 39.06 287.11 39.06 287.09 39.06 287.08 39.06 279.24 39.06 271.39 40.91 264.38 44.42L229.48 61.88C216 68.62 199.9 68.62 186.42 61.88L151.52 44.42C137.3 37.31 120.33 37.31 106.11 44.42L71.21 61.88C70.56 62.2 70.3 62.99 70.63 63.63 70.95 64.28 71.74 64.54 72.39 64.21L107.29 46.75C120.77 40.01 136.87 40.01 150.35 46.75L185.25 64.21C192.36 67.77 200.16 69.54 207.95 69.54 215.74 69.54 223.55 67.76 230.65 64.21Z" class="MsftOfcThm_Text1_Fill_v2" stroke="none" stroke-width="0" stroke-linecap="butt" stroke-linejoin="miter" stroke-miterlimit="4" fill="#367d56" fill-opacity="1"/><path d="M43.84 69.26C43.89 69.26 43.94 69.26 43.99 69.26 44.65 69.26 45.21 68.77 45.29 68.1 45.37 67.38 44.86 66.73 44.14 66.65 38.56 66 33.18 64.4 28.15 61.89L0 47.81 0 50.74 26.98 64.24C32.28 66.89 37.95 68.58 43.84 69.26Z" class="MsftOfcThm_Text1_Fill_v2" stroke="none" stroke-width="0" stroke-linecap="butt" stroke-linejoin="miter" stroke-miterlimit="4" fill="#367d56" fill-opacity="1"/><path d="M43.84 69.26C43.89 69.26 43.94 69.26 43.99 69.26 44.65 69.26 45.21 68.77 45.29 68.1 45.37 67.38 44.86 66.73 44.14 66.65 38.56 66 33.18 64.4 28.15 61.89L0 47.81 0 50.74 26.98 64.24C32.28 66.89 37.95 68.58 43.84 69.26Z" class="MsftOfcThm_Text1_Fill_v2" stroke="none" stroke-width="0" stroke-linecap="butt" stroke-linejoin="miter" stroke-miterlimit="4" fill="#367d56" fill-opacity="1"/><path d="M264.95 6.53C265.05 6.53 265.15 6.51 265.24 6.46 271.98 3.09 279.53 1.31 287.06 1.31 287.08 1.31 287.09 1.31 287.11 1.31 287.13 1.31 287.14 1.31 287.16 1.31 294.69 1.31 302.24 3.09 308.98 6.46L343.87 23.91C350.89 27.42 358.58 29.17 366.28 29.17 373.98 29.17 381.67 27.42 388.69 23.91L423.58 6.46C437.25-0.37 453.56-0.37 467.23 6.46L502.12 23.91C516.15 30.93 532.91 30.93 546.94 23.91L561.33 16.71C561.65 16.55 561.78 16.16 561.62 15.83 561.46 15.51 561.07 15.38 560.74 15.54L546.35 22.74C532.68 29.57 516.37 29.57 502.7 22.74L467.81 5.29C453.78-1.73 437.02-1.73 422.99 5.29L388.1 22.74C374.43 29.57 358.12 29.57 344.45 22.74L309.56 5.29C302.64 1.83 294.89 6.21725e-15 287.15 6.21725e-15 287.13 6.21725e-15 287.12 6.21725e-15 287.1 6.21725e-15 287.08 6.21725e-15 287.07 6.21725e-15 287.05 6.21725e-15 279.31 6.21725e-15 271.56 1.83 264.64 5.29 264.32 5.45 264.19 5.84 264.35 6.17 264.46 6.4 264.7 6.53 264.94 6.53Z" class="MsftOfcThm_Text1_Fill_v2" stroke="none" stroke-width="0" stroke-linecap="butt" stroke-linejoin="miter" stroke-miterlimit="4" fill="#367d56" fill-opacity="1"/><path d="M264.95 6.53C265.05 6.53 265.15 6.51 265.24 6.46 271.98 3.09 279.53 1.31 287.06 1.31 287.08 1.31 287.09 1.31 287.11 1.31 287.13 1.31 287.14 1.31 287.16 1.31 294.69 1.31 302.24 3.09 308.98 6.46L343.87 23.91C350.89 27.42 358.58 29.17 366.28 29.17 373.98 29.17 381.67 27.42 388.69 23.91L423.58 6.46C437.25-0.37 453.56-0.37 467.23 6.46L502.12 23.91C516.15 30.93 532.91 30.93 546.94 23.91L561.33 16.71C561.65 16.55 561.78 16.16 561.62 15.83 561.46 15.51 561.07 15.38 560.74 15.54L546.35 22.74C532.68 29.57 516.37 29.57 502.7 22.74L467.81 5.29C453.78-1.73 437.02-1.73 422.99 5.29L388.1 22.74C374.43 29.57 358.12 29.57 344.45 22.74L309.56 5.29C302.64 1.83 294.89 6.21725e-15 287.15 6.21725e-15 287.13 6.21725e-15 287.12 6.21725e-15 287.1 6.21725e-15 287.08 6.21725e-15 287.07 6.21725e-15 287.05 6.21725e-15 279.31 6.21725e-15 271.56 1.83 264.64 5.29 264.32 5.45 264.19 5.84 264.35 6.17 264.46 6.4 264.7 6.53 264.94 6.53Z" class="MsftOfcThm_Text1_Fill_v2" stroke="none" stroke-width="0" stroke-linecap="butt" stroke-linejoin="miter" stroke-miterlimit="4" fill="#367d56" fill-opacity="1"/><path d="M49.69 29.17C57.39 29.17 65.08 27.42 72.1 23.91L106.99 6.46C120.66-0.37 136.97-0.37 150.64 6.46L185.53 23.91C199.56 30.93 216.32 30.93 230.35 23.91L244.74 16.71C245.06 16.55 245.19 16.16 245.03 15.83 244.87 15.51 244.48 15.38 244.15 15.54L229.76 22.74C216.09 29.57 199.78 29.57 186.11 22.74L151.22 5.29C137.19-1.73 120.43-1.73 106.4 5.29L71.51 22.74C57.84 29.57 41.53 29.57 27.86 22.74L0 8.81 0 10.27 27.28 23.91C34.3 27.42 41.99 29.17 49.69 29.17Z" class="MsftOfcThm_Text1_Fill_v2" stroke="none" stroke-width="0" stroke-linecap="butt" stroke-linejoin="miter" stroke-miterlimit="4" fill="#367d56" fill-opacity="1"/><path d="M49.69 29.17C57.39 29.17 65.08 27.42 72.1 23.91L106.99 6.46C120.66-0.37 136.97-0.37 150.64 6.46L185.53 23.91C199.56 30.93 216.32 30.93 230.35 23.91L244.74 16.71C245.06 16.55 245.19 16.16 245.03 15.83 244.87 15.51 244.48 15.38 244.15 15.54L229.76 22.74C216.09 29.57 199.78 29.57 186.11 22.74L151.22 5.29C137.19-1.73 120.43-1.73 106.4 5.29L71.51 22.74C57.84 29.57 41.53 29.57 27.86 22.74L0 8.81 0 10.27 27.28 23.91C34.3 27.42 41.99 29.17 49.69 29.17Z" class="MsftOfcThm_Text1_Fill_v2" stroke="none" stroke-width="0" stroke-linecap="butt" stroke-linejoin="miter" stroke-miterlimit="4" fill="#367d56" fill-opacity="1"/><path d="M703.84 140.2C690.72 146.77 675.06 146.77 661.94 140.2L627.04 122.73C619.85 119.13 611.79 117.23 603.75 117.23 603.74 117.23 603.73 117.23 603.72 117.23 603.71 117.23 603.7 117.23 603.69 117.23 595.65 117.23 587.59 119.13 580.4 122.73L545.5 140.2C532.38 146.77 516.72 146.77 503.6 140.2L468.7 122.73C454.12 115.43 436.7 115.43 422.12 122.73L414.56 126.51C413.27 127.16 412.74 128.73 413.39 130.02 414.04 131.31 415.61 131.84 416.9 131.19L424.46 127.41C437.58 120.85 453.24 120.85 466.35 127.41L501.25 144.88C508.54 148.53 516.54 150.36 524.54 150.36 532.54 150.36 540.54 148.53 547.83 144.88L582.73 127.41C589.2 124.17 596.44 122.46 603.68 122.46 603.69 122.46 603.7 122.46 603.71 122.46 603.72 122.46 603.73 122.46 603.74 122.46 610.97 122.46 618.22 124.17 624.69 127.41L659.59 144.88C666.88 148.53 674.88 150.36 682.88 150.36 690.88 150.36 698.88 148.53 706.17 144.88 707.46 144.23 707.99 142.66 707.34 141.37 706.69 140.08 705.12 139.55 703.83 140.2Z" class="MsftOfcThm_Text1_Fill_v2" stroke="none" stroke-width="0" stroke-linecap="butt" stroke-linejoin="miter" stroke-miterlimit="4" fill="#367d56" fill-opacity="1"/><path d="M703.84 140.2C690.72 146.77 675.06 146.77 661.94 140.2L627.04 122.73C619.85 119.13 611.79 117.23 603.75 117.23 603.74 117.23 603.73 117.23 603.72 117.23 603.71 117.23 603.7 117.23 603.69 117.23 595.65 117.23 587.59 119.13 580.4 122.73L545.5 140.2C532.38 146.77 516.72 146.77 503.6 140.2L468.7 122.73C454.12 115.43 436.7 115.43 422.12 122.73L414.56 126.51C413.27 127.16 412.74 128.73 413.39 130.02 414.04 131.31 415.61 131.84 416.9 131.19L424.46 127.41C437.58 120.85 453.24 120.85 466.35 127.41L501.25 144.88C508.54 148.53 516.54 150.36 524.54 150.36 532.54 150.36 540.54 148.53 547.83 144.88L582.73 127.41C589.2 124.17 596.44 122.46 603.68 122.46 603.69 122.46 603.7 122.46 603.71 122.46 603.72 122.46 603.73 122.46 603.74 122.46 610.97 122.46 618.22 124.17 624.69 127.41L659.59 144.88C666.88 148.53 674.88 150.36 682.88 150.36 690.88 150.36 698.88 148.53 706.17 144.88 707.46 144.23 707.99 142.66 707.34 141.37 706.69 140.08 705.12 139.55 703.83 140.2Z" class="MsftOfcThm_Text1_Fill_v2" stroke="none" stroke-width="0" stroke-linecap="butt" stroke-linejoin="miter" stroke-miterlimit="4" fill="#367d56" fill-opacity="1"/><path d="M345.05 101.05 310.15 83.59C303.05 80.04 295.1 78.16 287.15 78.16 287.14 78.16 287.13 78.16 287.11 78.16 287.1 78.16 287.09 78.16 287.07 78.16 279.13 78.16 271.17 80.04 264.07 83.59L229.17 101.05C228.2 101.53 227.81 102.71 228.29 103.68 228.63 104.37 229.33 104.76 230.05 104.76 230.35 104.76 230.64 104.69 230.93 104.55L265.83 87.09C272.39 83.81 279.73 82.07 287.07 82.07 287.08 82.07 287.09 82.07 287.11 82.07 287.12 82.07 287.13 82.07 287.15 82.07 294.49 82.07 301.83 83.81 308.39 87.09L343.29 104.55C350.49 108.15 358.39 109.95 366.29 109.95 374.19 109.95 382.09 108.15 389.29 104.55L424.19 87.09C437.49 80.44 453.37 80.44 466.67 87.09L501.57 104.55C502.54 105.04 503.72 104.64 504.2 103.67 504.68 102.7 504.29 101.52 503.32 101.04L468.42 83.58C454.02 76.37 436.83 76.37 422.43 83.58L387.53 101.04C374.23 107.69 358.35 107.69 345.05 101.04Z" class="MsftOfcThm_Text1_Fill_v2" stroke="none" stroke-width="0" stroke-linecap="butt" stroke-linejoin="miter" stroke-miterlimit="4" fill="#367d56" fill-opacity="1"/><path d="M345.05 101.05 310.15 83.59C303.05 80.04 295.1 78.16 287.15 78.16 287.14 78.16 287.13 78.16 287.11 78.16 287.1 78.16 287.09 78.16 287.07 78.16 279.13 78.16 271.17 80.04 264.07 83.59L229.17 101.05C228.2 101.53 227.81 102.71 228.29 103.68 228.63 104.37 229.33 104.76 230.05 104.76 230.35 104.76 230.64 104.69 230.93 104.55L265.83 87.09C272.39 83.81 279.73 82.07 287.07 82.07 287.08 82.07 287.09 82.07 287.11 82.07 287.12 82.07 287.13 82.07 287.15 82.07 294.49 82.07 301.83 83.81 308.39 87.09L343.29 104.55C350.49 108.15 358.39 109.95 366.29 109.95 374.19 109.95 382.09 108.15 389.29 104.55L424.19 87.09C437.49 80.44 453.37 80.44 466.67 87.09L501.57 104.55C502.54 105.04 503.72 104.64 504.2 103.67 504.68 102.7 504.29 101.52 503.32 101.04L468.42 83.58C454.02 76.37 436.83 76.37 422.43 83.58L387.53 101.04C374.23 107.69 358.35 107.69 345.05 101.04Z" class="MsftOfcThm_Text1_Fill_v2" stroke="none" stroke-width="0" stroke-linecap="butt" stroke-linejoin="miter" stroke-miterlimit="4" fill="#367d56" fill-opacity="1"/><path d="M388.99 64.23 423.89 46.77C437.37 40.03 453.47 40.03 466.95 46.77L501.85 64.23C508.96 67.79 516.76 69.56 524.55 69.56 532.34 69.56 540.15 67.78 547.25 64.23L582.15 46.77C588.8 43.44 596.25 41.69 603.68 41.69 603.69 41.69 603.71 41.69 603.72 41.69 603.73 41.69 603.75 41.69 603.76 41.69 611.2 41.69 618.64 43.45 625.29 46.77L660.19 64.23C665.49 66.88 671.16 68.57 677.05 69.25 677.1 69.25 677.15 69.25 677.2 69.25 677.86 69.25 678.42 68.76 678.5 68.09 678.58 67.37 678.07 66.72 677.35 66.64 671.77 65.99 666.39 64.39 661.36 61.88L626.46 44.42C619.45 40.91 611.6 39.06 603.76 39.06 603.75 39.06 603.73 39.06 603.72 39.06 603.71 39.06 603.69 39.06 603.68 39.06 595.84 39.06 587.99 40.91 580.98 44.42L546.08 61.88C532.6 68.62 516.5 68.62 503.02 61.88L468.12 44.42C453.9 37.31 436.93 37.31 422.71 44.42L387.81 61.88C387.16 62.2 386.9 62.99 387.23 63.63 387.55 64.28 388.34 64.54 388.99 64.21Z" class="MsftOfcThm_Text1_Fill_v2" stroke="none" stroke-width="0" stroke-linecap="butt" stroke-linejoin="miter" stroke-miterlimit="4" fill="#367d56" fill-opacity="1"/><path d="M388.99 64.23 423.89 46.77C437.37 40.03 453.47 40.03 466.95 46.77L501.85 64.23C508.96 67.79 516.76 69.56 524.55 69.56 532.34 69.56 540.15 67.78 547.25 64.23L582.15 46.77C588.8 43.44 596.25 41.69 603.68 41.69 603.69 41.69 603.71 41.69 603.72 41.69 603.73 41.69 603.75 41.69 603.76 41.69 611.2 41.69 618.64 43.45 625.29 46.77L660.19 64.23C665.49 66.88 671.16 68.57 677.05 69.25 677.1 69.25 677.15 69.25 677.2 69.25 677.86 69.25 678.42 68.76 678.5 68.09 678.58 67.37 678.07 66.72 677.35 66.64 671.77 65.99 666.39 64.39 661.36 61.88L626.46 44.42C619.45 40.91 611.6 39.06 603.76 39.06 603.75 39.06 603.73 39.06 603.72 39.06 603.71 39.06 603.69 39.06 603.68 39.06 595.84 39.06 587.99 40.91 580.98 44.42L546.08 61.88C532.6 68.62 516.5 68.62 503.02 61.88L468.12 44.42C453.9 37.31 436.93 37.31 422.71 44.42L387.81 61.88C387.16 62.2 386.9 62.99 387.23 63.63 387.55 64.28 388.34 64.54 388.99 64.21Z" class="MsftOfcThm_Text1_Fill_v2" stroke="none" stroke-width="0" stroke-linecap="butt" stroke-linejoin="miter" stroke-miterlimit="4" fill="#367d56" fill-opacity="1"/><path d="M581.56 6.53C581.66 6.53 581.76 6.51 581.85 6.46 588.59 3.09 596.14 1.31 603.67 1.31 603.69 1.31 603.7 1.31 603.72 1.31 603.74 1.31 603.75 1.31 603.77 1.31 611.3 1.31 618.85 3.09 625.59 6.46L660.48 23.91C667.5 27.42 675.19 29.17 682.89 29.17 690.59 29.17 698.28 27.42 705.3 23.91L740.19 6.46C753.86-0.37 770.17-0.37 783.84 6.46L818.73 23.91C832.76 30.93 849.52 30.93 863.55 23.91L877.94 16.71C878.26 16.55 878.39 16.16 878.23 15.83 878.07 15.51 877.67 15.38 877.35 15.54L862.96 22.74C849.29 29.57 832.98 29.57 819.31 22.74L784.42 5.29C770.39-1.73 753.63-1.73 739.6 5.29L704.71 22.74C691.04 29.57 674.73 29.57 661.06 22.74L626.17 5.29C619.25 1.83 611.5 6.21725e-15 603.76 6.21725e-15 603.74 6.21725e-15 603.73 6.21725e-15 603.71 6.21725e-15 603.69 6.21725e-15 603.68 6.21725e-15 603.66 6.21725e-15 595.92 6.21725e-15 588.17 1.83 581.25 5.29 580.93 5.45 580.8 5.84 580.96 6.17 581.07 6.4 581.31 6.53 581.55 6.53Z" class="MsftOfcThm_Text1_Fill_v2" stroke="none" stroke-width="0" stroke-linecap="butt" stroke-linejoin="miter" stroke-miterlimit="4" fill="#367d56" fill-opacity="1"/><path d="M581.56 6.53C581.66 6.53 581.76 6.51 581.85 6.46 588.59 3.09 596.14 1.31 603.67 1.31 603.69 1.31 603.7 1.31 603.72 1.31 603.74 1.31 603.75 1.31 603.77 1.31 611.3 1.31 618.85 3.09 625.59 6.46L660.48 23.91C667.5 27.42 675.19 29.17 682.89 29.17 690.59 29.17 698.28 27.42 705.3 23.91L740.19 6.46C753.86-0.37 770.17-0.37 783.84 6.46L818.73 23.91C832.76 30.93 849.52 30.93 863.55 23.91L877.94 16.71C878.26 16.55 878.39 16.16 878.23 15.83 878.07 15.51 877.67 15.38 877.35 15.54L862.96 22.74C849.29 29.57 832.98 29.57 819.31 22.74L784.42 5.29C770.39-1.73 753.63-1.73 739.6 5.29L704.71 22.74C691.04 29.57 674.73 29.57 661.06 22.74L626.17 5.29C619.25 1.83 611.5 6.21725e-15 603.76 6.21725e-15 603.74 6.21725e-15 603.73 6.21725e-15 603.71 6.21725e-15 603.69 6.21725e-15 603.68 6.21725e-15 603.66 6.21725e-15 595.92 6.21725e-15 588.17 1.83 581.25 5.29 580.93 5.45 580.8 5.84 580.96 6.17 581.07 6.4 581.31 6.53 581.55 6.53Z" class="MsftOfcThm_Text1_Fill_v2" stroke="none" stroke-width="0" stroke-linecap="butt" stroke-linejoin="miter" stroke-miterlimit="4" fill="#367d56" fill-opacity="1"/><path d="M860.37 216.18C848.35 222.21 834 222.21 821.99 216.18L787.09 198.68C771.4 190.81 752.67 190.81 736.98 198.68L702.08 216.19C690.06 222.22 675.72 222.22 663.7 216.19L628.8 198.69C621.06 194.81 612.4 192.76 603.74 192.76 595.08 192.76 586.42 194.81 578.68 198.69L543.78 216.2C531.76 222.23 517.42 222.23 505.4 216.2L470.5 198.7C454.81 190.83 436.08 190.83 420.39 198.7L385.49 216.21C373.47 222.24 359.13 222.24 347.11 216.21L312.21 198.71C304.47 194.83 295.81 192.78 287.15 192.78 278.49 192.78 269.83 194.83 262.09 198.71L227.19 216.21C215.17 222.24 200.82 222.24 188.81 216.21L153.91 198.7C138.22 190.83 119.49 190.83 103.8 198.7L68.89 216.21C56.87 222.24 42.53 222.24 30.51 216.21L0 200.9 0 215.54 24.61 227.88C32.46 231.82 41.06 233.78 49.67 233.78 58.28 233.78 66.88 231.81 74.73 227.88L109.63 210.37C121.65 204.34 135.99 204.34 148.01 210.37L182.91 227.88C198.6 235.75 217.33 235.75 233.02 227.88L267.92 210.37C273.85 207.4 280.48 205.83 287.11 205.83 293.74 205.83 300.37 207.4 306.3 210.38L341.2 227.88C349.05 231.82 357.65 233.78 366.26 233.78 374.87 233.78 383.47 231.81 391.32 227.88L426.22 210.37C438.24 204.34 452.58 204.34 464.6 210.37L499.5 227.87C515.19 235.74 533.92 235.74 549.61 227.87L584.51 210.36C590.44 207.39 597.07 205.82 603.7 205.82 610.33 205.82 616.96 207.39 622.89 210.37L657.79 227.87C665.64 231.81 674.24 233.77 682.85 233.77 691.46 233.77 700.06 231.8 707.91 227.87L742.81 210.36C754.83 204.33 769.17 204.33 781.19 210.36L816.09 227.86C831.78 235.73 850.51 235.73 866.2 227.86L890.81 215.52 890.81 200.88 860.34 216.16Z" class="MsftOfcThm_Text1_Fill_v2" stroke="none" stroke-width="0" stroke-linecap="butt" stroke-linejoin="miter" stroke-miterlimit="4" fill="#367d56" fill-opacity="1"/><path d="M860.37 216.18C848.35 222.21 834 222.21 821.99 216.18L787.09 198.68C771.4 190.81 752.67 190.81 736.98 198.68L702.08 216.19C690.06 222.22 675.72 222.22 663.7 216.19L628.8 198.69C621.06 194.81 612.4 192.76 603.74 192.76 595.08 192.76 586.42 194.81 578.68 198.69L543.78 216.2C531.76 222.23 517.42 222.23 505.4 216.2L470.5 198.7C454.81 190.83 436.08 190.83 420.39 198.7L385.49 216.21C373.47 222.24 359.13 222.24 347.11 216.21L312.21 198.71C304.47 194.83 295.81 192.78 287.15 192.78 278.49 192.78 269.83 194.83 262.09 198.71L227.19 216.21C215.17 222.24 200.82 222.24 188.81 216.21L153.91 198.7C138.22 190.83 119.49 190.83 103.8 198.7L68.89 216.21C56.87 222.24 42.53 222.24 30.51 216.21L0 200.9 0 215.54 24.61 227.88C32.46 231.82 41.06 233.78 49.67 233.78 58.28 233.78 66.88 231.81 74.73 227.88L109.63 210.37C121.65 204.34 135.99 204.34 148.01 210.37L182.91 227.88C198.6 235.75 217.33 235.75 233.02 227.88L267.92 210.37C273.85 207.4 280.48 205.83 287.11 205.83 293.74 205.83 300.37 207.4 306.3 210.38L341.2 227.88C349.05 231.82 357.65 233.78 366.26 233.78 374.87 233.78 383.47 231.81 391.32 227.88L426.22 210.37C438.24 204.34 452.58 204.34 464.6 210.37L499.5 227.87C515.19 235.74 533.92 235.74 549.61 227.87L584.51 210.36C590.44 207.39 597.07 205.82 603.7 205.82 610.33 205.82 616.96 207.39 622.89 210.37L657.79 227.87C665.64 231.81 674.24 233.77 682.85 233.77 691.46 233.77 700.06 231.8 707.91 227.87L742.81 210.36C754.83 204.33 769.17 204.33 781.19 210.36L816.09 227.86C831.78 235.73 850.51 235.73 866.2 227.86L890.81 215.52 890.81 200.88 860.34 216.16Z" class="MsftOfcThm_Text1_Fill_v2" stroke="none" stroke-width="0" stroke-linecap="butt" stroke-linejoin="miter" stroke-miterlimit="4" fill="#367d56" fill-opacity="1"/><path d="M820.21 140.2 785.31 122.73C770.73 115.43 753.31 115.43 738.73 122.73L731.17 126.51C729.88 127.16 729.35 128.73 730 130.02 730.65 131.31 732.22 131.84 733.51 131.19L741.07 127.41C754.19 120.85 769.85 120.85 782.97 127.41L817.87 144.88C825.16 148.53 833.16 150.36 841.16 150.36 849.16 150.36 857.16 148.53 864.45 144.88L890.84 131.67 890.84 125.82 862.11 140.2C848.99 146.77 833.33 146.77 820.21 140.2Z" class="MsftOfcThm_Text1_Fill_v2" stroke="none" stroke-width="0" stroke-linecap="butt" stroke-linejoin="miter" stroke-miterlimit="4" fill="#367d56" fill-opacity="1"/><path d="M820.21 140.2 785.31 122.73C770.73 115.43 753.31 115.43 738.73 122.73L731.17 126.51C729.88 127.16 729.35 128.73 730 130.02 730.65 131.31 732.22 131.84 733.51 131.19L741.07 127.41C754.19 120.85 769.85 120.85 782.97 127.41L817.87 144.88C825.16 148.53 833.16 150.36 841.16 150.36 849.16 150.36 857.16 148.53 864.45 144.88L890.84 131.67 890.84 125.82 862.11 140.2C848.99 146.77 833.33 146.77 820.21 140.2Z" class="MsftOfcThm_Text1_Fill_v2" stroke="none" stroke-width="0" stroke-linecap="butt" stroke-linejoin="miter" stroke-miterlimit="4" fill="#367d56" fill-opacity="1"/><path d="M661.65 101.05 626.75 83.59C619.65 80.04 611.7 78.16 603.75 78.16 603.74 78.16 603.73 78.16 603.71 78.16 603.7 78.16 603.69 78.16 603.67 78.16 595.73 78.16 587.77 80.04 580.67 83.59L545.77 101.05C544.8 101.53 544.41 102.71 544.89 103.68 545.23 104.37 545.93 104.76 546.65 104.76 546.95 104.76 547.24 104.69 547.53 104.55L582.43 87.09C588.99 83.81 596.33 82.07 603.67 82.07 603.68 82.07 603.69 82.07 603.71 82.07 603.72 82.07 603.73 82.07 603.75 82.07 611.09 82.07 618.43 83.81 624.99 87.09L659.89 104.55C667.09 108.15 674.99 109.95 682.89 109.95 690.79 109.95 698.69 108.15 705.89 104.55L740.79 87.09C754.09 80.44 769.97 80.44 783.27 87.09L818.17 104.55C819.14 105.04 820.32 104.64 820.8 103.67 821.28 102.7 820.89 101.52 819.92 101.04L785.02 83.58C770.62 76.37 753.43 76.37 739.03 83.58L704.13 101.04C690.83 107.69 674.95 107.69 661.65 101.04Z" class="MsftOfcThm_Text1_Fill_v2" stroke="none" stroke-width="0" stroke-linecap="butt" stroke-linejoin="miter" stroke-miterlimit="4" fill="#367d56" fill-opacity="1"/><path d="M661.65 101.05 626.75 83.59C619.65 80.04 611.7 78.16 603.75 78.16 603.74 78.16 603.73 78.16 603.71 78.16 603.7 78.16 603.69 78.16 603.67 78.16 595.73 78.16 587.77 80.04 580.67 83.59L545.77 101.05C544.8 101.53 544.41 102.71 544.89 103.68 545.23 104.37 545.93 104.76 546.65 104.76 546.95 104.76 547.24 104.69 547.53 104.55L582.43 87.09C588.99 83.81 596.33 82.07 603.67 82.07 603.68 82.07 603.69 82.07 603.71 82.07 603.72 82.07 603.73 82.07 603.75 82.07 611.09 82.07 618.43 83.81 624.99 87.09L659.89 104.55C667.09 108.15 674.99 109.95 682.89 109.95 690.79 109.95 698.69 108.15 705.89 104.55L740.79 87.09C754.09 80.44 769.97 80.44 783.27 87.09L818.17 104.55C819.14 105.04 820.32 104.64 820.8 103.67 821.28 102.7 820.89 101.52 819.92 101.04L785.02 83.58C770.62 76.37 753.43 76.37 739.03 83.58L704.13 101.04C690.83 107.69 674.95 107.69 661.65 101.04Z" class="MsftOfcThm_Text1_Fill_v2" stroke="none" stroke-width="0" stroke-linecap="butt" stroke-linejoin="miter" stroke-miterlimit="4" fill="#367d56" fill-opacity="1"/><path d="M861.52 103.68C861.86 104.37 862.56 104.76 863.28 104.76 863.58 104.76 863.87 104.69 864.16 104.55L890.84 91.2 890.84 86.81 862.4 101.04C861.43 101.52 861.04 102.7 861.52 103.67Z" class="MsftOfcThm_Text1_Fill_v2" stroke="none" stroke-width="0" stroke-linecap="butt" stroke-linejoin="miter" stroke-miterlimit="4" fill="#367d56" fill-opacity="1"/><path d="M861.52 103.68C861.86 104.37 862.56 104.76 863.28 104.76 863.58 104.76 863.87 104.69 864.16 104.55L890.84 91.2 890.84 86.81 862.4 101.04C861.43 101.52 861.04 102.7 861.52 103.67Z" class="MsftOfcThm_Text1_Fill_v2" stroke="none" stroke-width="0" stroke-linecap="butt" stroke-linejoin="miter" stroke-miterlimit="4" fill="#367d56" fill-opacity="1"/><path d="M819.62 61.89 784.72 44.43C770.5 37.32 753.53 37.32 739.31 44.43L704.41 61.89C703.76 62.21 703.5 63 703.83 63.64 704.15 64.29 704.94 64.55 705.59 64.22L740.49 46.76C753.97 40.02 770.07 40.02 783.55 46.76L818.45 64.22C825.56 67.78 833.36 69.55 841.15 69.55 848.94 69.55 856.75 67.77 863.85 64.22L890.83 50.72 890.83 47.79 862.68 61.87C849.2 68.61 833.1 68.61 819.62 61.87Z" class="MsftOfcThm_Text1_Fill_v2" stroke="none" stroke-width="0" stroke-linecap="butt" stroke-linejoin="miter" stroke-miterlimit="4" fill="#367d56" fill-opacity="1"/><path d="M819.62 61.89 784.72 44.43C770.5 37.32 753.53 37.32 739.31 44.43L704.41 61.89C703.76 62.21 703.5 63 703.83 63.64 704.15 64.29 704.94 64.55 705.59 64.22L740.49 46.76C753.97 40.02 770.07 40.02 783.55 46.76L818.45 64.22C825.56 67.78 833.36 69.55 841.15 69.55 848.94 69.55 856.75 67.77 863.85 64.22L890.83 50.72 890.83 47.79 862.68 61.87C849.2 68.61 833.1 68.61 819.62 61.87Z" class="MsftOfcThm_Text1_Fill_v2" stroke="none" stroke-width="0" stroke-linecap="butt" stroke-linejoin="miter" stroke-miterlimit="4" fill="#367d56" fill-opacity="1"/></svg>